<svg id="Logotype" xmlns="http://www.w3.org/2000/svg" xmlns:xlink="http://www.w3.org/1999/xlink" width="273.509" height="61" viewBox="0 0 273.509 61">
  <defs>
    <clipPath id="clip-path">
      <rect id="Rectangle_145" data-name="Rectangle 145" width="273.509" height="61" fill="#fff"/>
    </clipPath>
  </defs>
  <g id="Group_160" data-name="Group 160" transform="translate(0 0)">
    <g id="Group_160-2" data-name="Group 160" transform="translate(0 0)" clip-path="url(#clip-path)">
      <path id="Path_195" data-name="Path 195" d="M5.612,2.679a1.023,1.023,0,0,0,.311-.1L5.98,2.54l0,0L6,2.529l0,0,.01-.006A.091.091,0,0,1,6.032,2.5l.089-.092,0,0,.015-.016,0,0,.009-.01,0-.007,0,0v0l0,0a.984.984,0,0,0,.074-.131l0,0A.837.837,0,0,0,6.3,1.951L6.31,1.93V1.842L6.3,1.821a.833.833,0,0,0-.122-.369l-.007-.007,0-.006a.7.7,0,0,0-.076-.095.132.132,0,0,0-.02-.017l0,0A.186.186,0,0,1,6.042,1.3l0,0-.007-.007-.006,0-.006-.007a.8.8,0,0,0-.244-.136.238.238,0,0,1-.037-.033l-.01-.015a.327.327,0,0,1-.016-.067c0-.014,0-.027,0-.041V.963C5.7.927,5.7.89,5.7.855V.821L5.7.8,5.71.8a.111.111,0,0,1,.026-.01H5.76L5.9.814h.018l.021,0h.1A.168.168,0,0,0,6.106.8.209.209,0,0,0,6.174.757.193.193,0,0,0,6.21.672V.628a.181.181,0,0,0-.054-.1h0l0,0A.2.2,0,0,0,6.109.5a.614.614,0,0,0-.323.023H5.763A.213.213,0,0,1,5.725.512L5.713.5l0-.009,0-.02a.7.7,0,0,0-.016-.4L5.662.044A.245.245,0,0,0,5.605.009L5.576,0H5.533L5.5.009,5.477.023,5.471.032H5.465A.242.242,0,0,0,5.417.1.3.3,0,0,0,5.4.219V.227l0,.047L5.4.28V.291L5.4.3a1.556,1.556,0,0,1,.022.184.1.1,0,0,1-.012.031L5.407.519,5.4.522l-.018,0H5.346A1.035,1.035,0,0,0,5.1.486a.307.307,0,0,0-.092.027L4.977.534,4.968.543l0,0-.01.007,0,0,0,0a.146.146,0,0,0-.023.046A.219.219,0,0,0,4.92.676a.2.2,0,0,0,.017.06.3.3,0,0,0,.039.049L5,.8a.3.3,0,0,0,.1.023h.028l.022,0A1.2,1.2,0,0,0,5.369.785H5.4A.216.216,0,0,1,5.427.8l0,0h0l.007.017,0,.03V.882a.96.96,0,0,1-.048.238l-.011.015a1.555,1.555,0,0,0-.222.122v0l-.021.012,0,0-.016.011,0,.007h0a.707.707,0,0,0-.089.094l0,0,0,0,0,0L5,1.414l0,0v0a.786.786,0,0,0-.068.111v0a.87.87,0,0,0-.088.328l0,.007a.892.892,0,0,0,.139.482l0,0,.006.01,0,0v.006L5,2.386l0,0a.232.232,0,0,0,.02.028l.012.016,0,0,.036.039.007,0h0l0,0,0,0L5.1,2.5l.01.01,0,0,.006,0h0l.011.011,0,0h0a.782.782,0,0,0,.466.148" transform="translate(1.127 0)" fill="#fff"/>
      <path id="Path_196" data-name="Path 196" d="M9.521,9.331c-.3,0-.549-.162-.549-.36s.245-.359.549-.359.547.162.547.359-.247.36-.547.36m-2.834,0c-.3,0-.546-.162-.546-.36s.243-.359.546-.359.547.162.547.359-.245.36-.547.36m-2.814,0c-.3,0-.549-.162-.549-.36s.245-.359.549-.359.546.162.546.359-.245.36-.546.36M13.4,5.7c0-.018,0-.036,0-.053a.578.578,0,0,0-.067-.176l0,0a.074.074,0,0,0-.02-.027l0-.007L13.3,5.428l0,0-.007-.007h0l-.027-.033,0,0-.017-.018-.006,0-.014-.012-.035-.026a.228.228,0,0,1-.046-.023L13.1,5.281l-.06-.012h-.007l-.01,0h-.074l-.038.006h-.017l-.032.01a.67.67,0,0,0-.1.051.981.981,0,0,0-.1.1l0,.006-.027.027,0,.007-.015.018,0,0-.014.014,0,0-.006.007a1.293,1.293,0,0,0-.106.189,6.012,6.012,0,0,0-.249.805l-.01.017-.009.007-.007,0h-.007l-.015-.014c-.015-.046-.031-.09-.047-.136l-.01-.015,0-.011-.023-.042,0,0,0-.006a.632.632,0,0,0-.078-.1l-.007,0-.015-.02,0,0,0,0-.006,0,0-.007-.037-.026-.06-.027a1.015,1.015,0,0,0-.106-.023h-.017l-.009,0h-.014l-.007,0H11.7l-.007,0h-.067a.438.438,0,0,0-.126.06l0,0-.011,0,0,.01-.006,0-.011.012-.006,0,0,0h0l-.054.057,0,.007a.421.421,0,0,0-.053.079.392.392,0,0,0-.032.09.155.155,0,0,1-.006.041v.038c0,.039,0,.076,0,.116v.02a.516.516,0,0,0,.07.187l0,0,.007.015a.364.364,0,0,0,.042.055l.006,0a.665.665,0,0,0,.074.058.114.114,0,0,1,.03.016.7.7,0,0,0,.18.047h.048a.313.313,0,0,0,.068-.012h.018l.01,0h.032l.02.011.012.014.007.014.009.035,0,.053a1.727,1.727,0,0,1-.088.281l0,.007a1.1,1.1,0,0,1-.076.147l0,0-.022.035,0,0,0,.007,0,0-.006.011,0,0,0,.006,0,.006a.664.664,0,0,1-.064.081l-.006,0-.025.028-.007,0-.021.025-.006,0-.006.01-.006,0,0,0,0,0,0,0-.011.007,0,0a.216.216,0,0,0-.037.03l0,0,0,0,0,0,0,0-.006,0,0,0a1.125,1.125,0,0,1-.517.208H10.75a.937.937,0,0,1-.385-.146v0l-.006,0,0,0-.025-.017,0,0-.015-.01,0,0-.031-.022,0,0-.018-.012-.011-.012-.012-.009-.01-.009,0,0,0,0-.009-.007,0,0-.006,0-.009-.007,0,0L10.1,7.731l0-.006-.011-.012,0,0L10.074,7.7V7.692l0-.006,0-.007h0l0-.007-.011-.011-.023-.033,0,0c-.023-.035-.044-.069-.064-.1l-.067-.148,0-.01a1.625,1.625,0,0,1-.118-.482.213.213,0,0,1,0-.048l.009-.02.01-.01.007,0h.011L9.83,6.8l.032.02v0l.014.01,0,0,.006,0,0,0,0,0,0,.007H9.9l0,0,.012.01.006.007q.048.031.1.067a.889.889,0,0,0,.181.074.282.282,0,0,0,.079.009l.009,0h.058l.088-.014a.686.686,0,0,0,.109-.043l.044-.031,0,0,.006,0a.319.319,0,0,0,.046-.046l0,0,.016-.017,0-.007a.643.643,0,0,0,.075-.144l.015-.054V6.6l0-.01V6.546l0-.01V6.48a.438.438,0,0,0-.068-.181l-.063-.073-.007,0L10.6,6.2l0,0-.006-.007a.454.454,0,0,0-.128-.073l-.052-.009h-.023l-.009,0a1.14,1.14,0,0,0-.146,0,.925.925,0,0,0-.179.06l-.006,0c-.065.039-.129.08-.192.123l-.031.012-.012,0L9.8,6.3V6.279l.021-.041,0,0v0l0,0,0-.006A.988.988,0,0,0,10,5.805V5.794l0-.028a.53.53,0,0,0-.006-.1l0-.012v-.02a.507.507,0,0,0-.058-.162l0,0,0-.007a.411.411,0,0,0-.067-.08l-.006,0-.018-.021-.006,0A.341.341,0,0,0,9.771,5.3l-.006,0-.009-.006c-.023-.011-.047-.02-.07-.028l-.058-.01h-.01l-.009,0a.668.668,0,0,0-.111,0l-.067.018a1.06,1.06,0,0,0-.1.058l-.009.007-.01,0c-.02.021-.038.043-.057.065l0,.007-.006.006,0,0,0,0a.475.475,0,0,0-.084.242l0,.009v.078l0,.009v.022a1.175,1.175,0,0,0,.19.467l.006.017V6.3l0,.01h0l-.007,0-.01,0-.015,0c-.073-.048-.146-.095-.217-.146-.051-.022-.1-.042-.154-.06l-.088-.017H8.773a.569.569,0,0,0-.089.018.586.586,0,0,0-.122.074l0,0-.006,0,0,0-.006,0-.027.027,0,.007-.021.02v.007l0,0,0,.007,0,0,0,0a.559.559,0,0,0-.084.234V6.6a.655.655,0,0,0,.023.109.567.567,0,0,0,.123.206.757.757,0,0,0,.115.074.649.649,0,0,0,.118.033A.8.8,0,0,0,8.9,7.016l.021-.006.03,0a.764.764,0,0,0,.211-.085L9.18,6.91a.582.582,0,0,0,.1-.06l0,0L9.343,6.8l.022-.009h.021L9.4,6.8l.01.02.007.027v.027l0,.009a1.433,1.433,0,0,1-.195.61l0,0-.011.02,0,0,0,.006-.006,0-.016.025,0,0-.007.015a.1.1,0,0,0-.017.023l0,.006,0,0,0,.006,0,0-.022.035L9.1,7.66l0,0a.656.656,0,0,1-.079.086l-.009.012-.006,0L9,7.776l-.016.017-.007,0L8.966,7.8l0,0-.006,0v0l-.007,0,0,0,0,0,0,0-.007,0-.007.007-.006,0,0,0L8.9,7.856H8.9l0,0-.022.018,0,0,0,0a1.217,1.217,0,0,1-.519.217H8.32l-.009,0H8.287l-.007,0H8.258l-.025,0H8.22l-.009,0H8.1l-.022,0H8.069l-.026-.006H8.029l-.007,0H8.006l-.025,0H7.968c-.047-.009-.094-.02-.141-.032l-.015-.007a.969.969,0,0,1-.2-.089l0,0-.014,0c-.039-.025-.079-.049-.117-.075L7.428,7.85l0-.006L7.41,7.836c-.049-.047-.1-.095-.149-.144l0-.007-.023-.022,0-.007L7.2,7.616l0,0-.02-.03,0,0v0l-.006-.007c-.032-.054-.064-.11-.095-.164l-.01-.028-.006-.009A1.225,1.225,0,0,1,6.95,7V6.98l0-.012c0-.016,0-.032,0-.048l0-.028.006-.012.006,0,.016,0h.014a1.39,1.39,0,0,0,.383.171l.031,0,.006,0h.032a.78.78,0,0,0,.15-.033.763.763,0,0,0,.07-.037l0,0,.023-.016,0,0L7.7,6.947l0,0,.01-.01.012-.007.038-.043v0l.009-.01,0,0,0,0a.228.228,0,0,1,.026-.041A.556.556,0,0,0,7.852,6.7l.007-.049V6.62l0-.01a1.085,1.085,0,0,0,0-.127.744.744,0,0,0-.018-.075c-.012-.026-.025-.049-.037-.074a.173.173,0,0,1-.02-.032v0l-.041-.055h0l-.022-.023-.009,0,0,0a.14.14,0,0,0-.033-.027l-.011,0-.007-.006a.435.435,0,0,0-.137-.044H7.492l-.009,0H7.429l-.007,0H7.4a.964.964,0,0,0-.184.058.4.4,0,0,0-.038.023h0c-.049.03-.1.062-.146.094l-.007,0-.009.006-.027.011H6.963l-.01,0,0-.009V6.286l.007-.036a1.554,1.554,0,0,0,.154-.414V5.809l0-.01V5.686a.509.509,0,0,0-.131-.29l0,0-.007-.006-.006,0,0,0-.006,0,0-.007-.047-.035-.011,0-.007-.006L6.8,5.285l-.054-.01H6.728l-.009,0H6.675l-.009,0H6.647l-.058.011a1.056,1.056,0,0,0-.125.06l-.017.017h0l0,0,0,0a.07.07,0,0,0-.018.015l-.011.007-.036.041,0,0,0,0V5.45l0,0,0,.006,0,0a.548.548,0,0,0-.089.264,1.435,1.435,0,0,0,.178.564V6.3l-.007.012-.009.007H6.4a.27.27,0,0,1-.068-.035l-.016-.015-.036-.021-.021-.017-.009,0a.782.782,0,0,0-.282-.109H5.906a.629.629,0,0,0-.142.036L5.715,6.2l0,0-.006,0,0,0h0l-.006.006,0,0,0,.006-.007,0,0,.007-.014.01v0c-.012.014-.025.028-.036.043l0,0L5.6,6.32l-.006.01,0,0-.009.014,0,0,0,0,0,0-.02.032c-.007.018-.014.037-.02.057l-.007.047v.02l0,.009a.624.624,0,0,0,.037.26.438.438,0,0,0,.091.141l0,0,.012.012c.022.018.044.036.068.053a.673.673,0,0,0,.169.053h.025l.006,0h.02l.006,0h.023a.8.8,0,0,0,.253-.085l.007,0,.067-.037A.239.239,0,0,1,6.4,6.87h.023l.01.007.011.016.006.027v.047L6.444,7l0,.011a1.357,1.357,0,0,1-.155.459c-.022.033-.042.068-.062.1l-.012.018,0,0,0,0a1.271,1.271,0,0,1-.139.164l-.006,0-.01.01,0,0-.01.009,0,0-.006,0,0,0-.007,0-.01.014,0,0L6,7.826l0,0L5.98,7.84h0l-.011.015h0l-.007.01a1.1,1.1,0,0,1-.232.139l-.006.006a1.187,1.187,0,0,1-.328.1H5.372l-.054.009a1.224,1.224,0,0,1-.269-.009H5.033V8.1H4.989a1.178,1.178,0,0,1-.476-.221L4.5,7.877l-.011-.012-.023-.017,0,0-.018-.011,0,0,0,0v0a.569.569,0,0,1-.073-.072l0-.007,0,0-.084-.094,0-.007,0,0,0-.006,0,0,0-.007a.3.3,0,0,0-.022-.032l0,0c-.007-.012-.016-.026-.022-.038h0c-.031-.049-.06-.1-.086-.153A1.4,1.4,0,0,1,4,7.016V7l0-.011a.57.57,0,0,1-.006-.08l0-.01V6.884l0-.007V6.862l0-.018L4,6.823h0l.009-.006h.017l.022.006.036.022,0,0,0,0,.006,0,0,0,0,0,.006,0h0c.033.023.068.047.1.068a.985.985,0,0,0,.19.08l.055.009h.022l.01,0h.039l.01,0h.025l.01,0h.042c.033,0,.065-.011.1-.017a.3.3,0,0,0,.1-.06.454.454,0,0,0,.048-.037l.02-.023,0,0,0,0,.036-.059.006-.012L4.947,6.8A.592.592,0,0,0,5,6.638V6.572l0-.009V6.551H5V6.538L4.99,6.529l0-.033,0-.016V6.437a.381.381,0,0,0-.022-.073L4.92,6.3h0l-.007-.014L4.9,6.275l0-.006,0,0,0-.006a.149.149,0,0,1-.026-.03l-.006,0L4.84,6.2l-.006,0,0-.007-.011,0,0,0-.025-.017a.721.721,0,0,0-.175-.054.367.367,0,0,0-.09,0,1.177,1.177,0,0,0-.229.08c-.067.044-.132.09-.2.137l-.021.01H4.058l0-.007V6.3l0-.023a1.273,1.273,0,0,0,.194-.5V5.728c-.009-.044-.02-.089-.031-.133a.688.688,0,0,0-.059-.126A.377.377,0,0,0,4.1,5.392c-.023-.02-.048-.038-.073-.057l-.01,0-.007,0A.93.93,0,0,0,3.9,5.285l-.057-.01H3.788a.669.669,0,0,0-.144.043c-.03.02-.058.041-.086.062L3.543,5.4l-.006,0,0,.006-.006,0,0,.006-.006,0,0,0L3.5,5.447l0,.006,0,.006,0,0,0,.006a.494.494,0,0,0-.054.1.691.691,0,0,0-.033.134v.017l0,.01v.094l0,.009V5.84a1.072,1.072,0,0,0,.063.215l.006.007,0,.01a1.421,1.421,0,0,0,.094.17A.184.184,0,0,1,3.6,6.3L3.6,6.32v.012l0,.007-.006,0H3.585l-.027-.012a.938.938,0,0,0-.393-.187H3.079l-.012,0-.006,0H2.983a.484.484,0,0,0-.073.018l-.047.025L2.856,6.2a.576.576,0,0,0-.112.1V6.3a.43.43,0,0,0-.089.206.337.337,0,0,1-.006.049.663.663,0,0,0,.012.178.776.776,0,0,0,.067.146l0,.006,0,.006L2.74,6.9l0,0,.007.007,0,.007.051.053.006,0,0,0L2.852,7l.058.027a.681.681,0,0,0,.141.031h.055a1.187,1.187,0,0,0,.249-.076l.046-.03,0,0,.026-.018,0,0a.169.169,0,0,0,.025-.016l0-.006.016-.01,0-.006.011-.007,0,0,.007,0,.016-.015,0,0,0,0,.01-.01.026-.018.016-.01.016,0h.015l.015.007c0,.011.009.023.011.035a.89.89,0,0,1-.009.129l0,.011a1.448,1.448,0,0,1-.154.488l0,.009a.522.522,0,0,1-.031.058l0,.01L3.4,7.625l-.01.012,0,.01,0,0,0,.007-.006,0,0,0-.006,0,0,.006,0,0,0,.007L3.345,7.7l0,0a1.524,1.524,0,0,1-.117.134.138.138,0,0,1-.025.022.26.26,0,0,1-.033.031l-.009,0L3.152,7.9l0,0,0,0-.011.007,0,0,0,0,0,.006-.031.022,0,0A.866.866,0,0,0,3,8.013a1.06,1.06,0,0,1-.372.127H2.6l-.009,0h-.1l-.01,0H2.466a1.544,1.544,0,0,1-.291-.072c-.057-.03-.115-.059-.173-.088l-.014-.01H1.983L1.938,7.94l0,0-.011,0v0l-.006,0h0L1.9,7.913l0,0,0,0,0,0-.006,0,0,0-.006,0,0,0-.006,0,0,0,0,0-.021-.02h0v0l-.007,0,0,0-.006,0c-.021-.021-.043-.042-.063-.065l0-.006-.017-.018,0-.007L1.72,7.736l0-.006-.01-.007,0-.007L1.7,7.708l0-.007-.007-.007-.006-.015-.009-.006L1.665,7.66a1.314,1.314,0,0,1-.2-.487V7.13l0-.025.011-.023L1.5,7.074l.028-.007h.01l.088.015h.015l.009,0a.56.56,0,0,0,.2-.038.64.64,0,0,0,.1-.065l.051-.053,0,0,.016-.02,0-.007,0,0,.011-.02,0,0,.011-.022,0,0a.2.2,0,0,1,.022-.039.642.642,0,0,0,.043-.16V6.63l0-.01a.672.672,0,0,0-.086-.286l-.006,0,0-.006a.4.4,0,0,0-.057-.065l0,0-.01-.014,0,0,0,0-.006,0,0,0-.007,0v0l-.042-.03a.407.407,0,0,0-.09-.037l-.057-.011h-.1a.606.606,0,0,0-.128.037L1.5,6.188l-.007,0c-.022.015-.044.032-.067.048l0,0H1.419l0,.007-.006,0,0,0-.006,0a.271.271,0,0,0-.038.037l0,.007-.016.017,0,.006,0,0a1.355,1.355,0,0,0-.1.247l0,0,0,.006,0,0H1.2l-.012-.012a.508.508,0,0,1-.033-.085A3.676,3.676,0,0,0,.967,5.84a2.44,2.44,0,0,0-.129-.253L.831,5.581l0-.006C.788,5.527.745,5.48.7,5.435l-.006,0-.011-.01a.471.471,0,0,0-.206-.091H.467l-.009,0h-.1l-.009,0H.343l-.049.01a.54.54,0,0,0-.1.053l-.021.014-.012.015-.006,0a.511.511,0,0,0-.047.043L.1,5.484c-.018.031-.036.063-.054.094A.615.615,0,0,0,0,5.741c0,.017,0,.035,0,.053V5.8a2.358,2.358,0,0,0,.427.922l0,.011c.067.122.132.244.2.366l0,.014c.033.068.068.136.1.2l0,.007.018.048.012.017q.137.3.269.6v.012c.021.047.039.094.057.143l.01.016a9.257,9.257,0,0,1,.5,2.006l.011.022.012.015.015.011.018.009.046.007h9.964l.007,0h.046l.03-.006.02-.009.026-.027.012-.032c.011-.072.018-.144.023-.216l0-.012a8.732,8.732,0,0,1,.832-2.646l.006-.021.006-.009c.03-.059.059-.118.088-.178l.01-.016A.308.308,0,0,1,12.808,7l0-.012a.675.675,0,0,0,.051-.1c.011-.021.022-.042.035-.063l0-.01c.042-.076.084-.154.128-.231l0-.012c.053-.092.1-.185.157-.277l0-.01A1.962,1.962,0,0,0,13.3,6.1l0-.009.012-.018a.754.754,0,0,0,.081-.322l0-.01V5.712Z" transform="translate(0 1.224)" fill="#fff"/>
      <path id="Path_197" data-name="Path 197" d="M1.385,4.738a.49.49,0,0,1-.456.515.489.489,0,0,1-.455-.515.489.489,0,0,1,.455-.513.489.489,0,0,1,.456.513" transform="translate(0.11 0.984)" fill="#fff"/>
      <path id="Path_198" data-name="Path 198" d="M1.977,3.789a.438.438,0,0,1-.413.457.438.438,0,0,1-.412-.457.438.438,0,0,1,.412-.457.438.438,0,0,1,.413.457" transform="translate(0.268 0.776)" fill="#fff"/>
      <path id="Path_199" data-name="Path 199" d="M2.761,3.133a.372.372,0,0,1-.358.387.389.389,0,0,1,0-.776.373.373,0,0,1,.358.388" transform="translate(0.477 0.64)" fill="#fff"/>
      <path id="Path_200" data-name="Path 200" d="M3.567,2.676a.322.322,0,0,1-.3.34.32.32,0,0,1-.3-.34.32.32,0,0,1,.3-.338.322.322,0,0,1,.3.338" transform="translate(0.692 0.545)" fill="#fff"/>
      <path id="Path_201" data-name="Path 201" d="M4.405,2.555a.287.287,0,1,1-.286-.308.3.3,0,0,1,.286.308" transform="translate(0.893 0.523)" fill="#fff"/>
      <path id="Path_202" data-name="Path 202" d="M5.077,2.726a.252.252,0,1,1-.249-.27.259.259,0,0,1,.249.27" transform="translate(1.066 0.572)" fill="#fff"/>
      <path id="Path_203" data-name="Path 203" d="M4.579,3.268a.258.258,0,1,1-.256-.276.268.268,0,0,1,.256.276" transform="translate(0.947 0.697)" fill="#fff"/>
      <path id="Path_204" data-name="Path 204" d="M3.768,4.673a.447.447,0,0,1-.423.465.466.466,0,0,1,0-.927.444.444,0,0,1,.423.462" transform="translate(0.681 0.981)" fill="#fff"/>
      <path id="Path_205" data-name="Path 205" d="M5.936,4.66A.424.424,0,1,1,5.513,4.2a.443.443,0,0,1,.423.464" transform="translate(1.187 0.978)" fill="#fff"/>
      <path id="Path_206" data-name="Path 206" d="M5.816,3.69a.324.324,0,1,1-.323-.355.339.339,0,0,1,.323.355" transform="translate(1.205 0.777)" fill="#fff"/>
      <path id="Path_207" data-name="Path 207" d="M5.712,2.917a.236.236,0,1,1-.471,0,.237.237,0,1,1,.471,0" transform="translate(1.222 0.619)" fill="#fff"/>
      <path id="Path_208" data-name="Path 208" d="M4.024,3.806a.306.306,0,1,1-.307-.33.318.318,0,0,1,.307.33" transform="translate(0.796 0.81)" fill="#fff"/>
      <path id="Path_209" data-name="Path 209" d="M9.655,4.738a.458.458,0,1,0,.909,0,.458.458,0,1,0-.909,0" transform="translate(2.25 0.984)" fill="#fff"/>
      <path id="Path_210" data-name="Path 210" d="M9.045,3.789a.415.415,0,1,0,.826,0,.415.415,0,1,0-.826,0" transform="translate(2.108 0.776)" fill="#fff"/>
      <path id="Path_211" data-name="Path 211" d="M8.241,3.133A.358.358,0,1,0,8.6,2.745a.373.373,0,0,0-.356.388" transform="translate(1.921 0.64)" fill="#fff"/>
      <path id="Path_212" data-name="Path 212" d="M7.414,2.676a.3.3,0,1,0,.6,0,.3.3,0,1,0-.6,0" transform="translate(1.728 0.545)" fill="#fff"/>
      <path id="Path_213" data-name="Path 213" d="M6.571,2.555a.287.287,0,1,0,.286-.308.3.3,0,0,0-.286.308" transform="translate(1.532 0.523)" fill="#fff"/>
      <path id="Path_214" data-name="Path 214" d="M5.885,2.726a.252.252,0,1,0,.252-.27.26.26,0,0,0-.252.27" transform="translate(1.372 0.572)" fill="#fff"/>
      <path id="Path_215" data-name="Path 215" d="M6.385,3.268a.258.258,0,1,0,.258-.276.269.269,0,0,0-.258.276" transform="translate(1.488 0.697)" fill="#fff"/>
      <path id="Path_216" data-name="Path 216" d="M7.26,4.673a.424.424,0,1,0,.422-.462.445.445,0,0,0-.422.462" transform="translate(1.692 0.981)" fill="#fff"/>
      <path id="Path_217" data-name="Path 217" d="M6.959,3.806a.306.306,0,1,0,.3-.33.316.316,0,0,0-.3.33" transform="translate(1.622 0.81)" fill="#fff"/>
      <path id="Path_218" data-name="Path 218" d="M21.7,9.089a.256.256,0,0,1-.512,0,.248.248,0,0,1,.255-.247.251.251,0,0,1,.256.247" transform="translate(4.937 2.061)" fill="#fff"/>
      <path id="Path_219" data-name="Path 219" d="M21.41,9.054c-.255.176-.721-.1-1-.607a3.143,3.143,0,0,1-.261-1.482,3.673,3.673,0,0,1,1.128.872c.371.5.42,1.021.136,1.217" transform="translate(4.694 1.623)" fill="#fff"/>
      <path id="Path_220" data-name="Path 220" d="M19.825,8.512c-.307.062-.761-.354-.887-.954A4.513,4.513,0,0,1,19.041,6,4.11,4.11,0,0,1,20.065,7.32c.2.6.064,1.113-.24,1.192" transform="translate(4.405 1.399)" fill="#fff"/>
      <path id="Path_221" data-name="Path 221" d="M20.146,8.444a.189.189,0,0,1-.244.109.18.18,0,0,1-.115-.233.192.192,0,0,1,.245-.11.18.18,0,0,1,.113.234" transform="translate(4.609 1.911)" fill="#fff"/>
      <path id="Path_222" data-name="Path 222" d="M18.382,7.569c-.3,0-.524-.275-.524-.794a2.918,2.918,0,0,1,.534-1.37A3.083,3.083,0,0,1,18.9,6.7c0,.535-.217.873-.519.873" transform="translate(4.162 1.26)" fill="#fff"/>
      <path id="Path_223" data-name="Path 223" d="M18.873,7.887a.213.213,0,0,1-.29.026.193.193,0,0,1-.026-.279.217.217,0,0,1,.292-.023.19.19,0,0,1,.023.276" transform="translate(4.314 1.763)" fill="#fff"/>
      <path id="Path_224" data-name="Path 224" d="M17.773,7.007a.159.159,0,0,1-.212-.053.147.147,0,0,1,.06-.2.156.156,0,0,1,.211.052.145.145,0,0,1-.059.2" transform="translate(4.089 1.569)" fill="#fff"/>
      <path id="Path_225" data-name="Path 225" d="M17.189,5.6a.227.227,0,0,1-.266-.182.233.233,0,0,1,.2-.258.221.221,0,0,1,.264.181.234.234,0,0,1-.2.259" transform="translate(3.944 1.201)" fill="#fff"/>
      <path id="Path_226" data-name="Path 226" d="M17.522,4.48a.214.214,0,0,1-.182-.26.255.255,0,0,1,.28-.2.217.217,0,0,1,.181.263.256.256,0,0,1-.279.2" transform="translate(4.04 0.937)" fill="#fff"/>
      <path id="Path_227" data-name="Path 227" d="M18.682,8.033c-.1.313-.46.455-1,.28A3.158,3.158,0,0,1,16.435,7.3a3.355,3.355,0,0,1,1.511-.1c.556.178.835.513.736.827" transform="translate(3.831 1.665)" fill="#fff"/>
      <path id="Path_228" data-name="Path 228" d="M19.957,8.571c.036.291-.237.543-.8.6A3.438,3.438,0,0,1,17.607,8.8,3.514,3.514,0,0,1,18.95,8.16c.582-.059.97.115,1.007.411" transform="translate(4.104 1.899)" fill="#fff"/>
      <path id="Path_229" data-name="Path 229" d="M21.031,8.828c.112.234-.044.52-.5.728a3.017,3.017,0,0,1-1.4.128,3.111,3.111,0,0,1,.94-.914c.467-.212.842-.179.956.058" transform="translate(4.46 2.011)" fill="#fff"/>
      <path id="Path_230" data-name="Path 230" d="M17.675,6.954c-.192.192-.53.139-.892-.237a3.155,3.155,0,0,1-.61-1.338,3.214,3.214,0,0,1,1.226.613c.375.386.47.768.276.962" transform="translate(3.769 1.253)" fill="#fff"/>
      <path id="Path_231" data-name="Path 231" d="M17.628,6.145c-.2-.038-.3-.293-.2-.723a2.873,2.873,0,0,1,.621-1.056A2.842,2.842,0,0,1,18.14,5.5c-.1.443-.31.691-.513.65" transform="translate(4.052 1.018)" fill="#fff"/>
      <path id="Path_232" data-name="Path 232" d="M17.424,4.115c-.2-.007-.343-.218-.323-.6A2.359,2.359,0,0,1,17.518,2.5a2.4,2.4,0,0,1,.289.977c-.021.4-.179.645-.382.636" transform="translate(3.985 0.583)" fill="#fff"/>
      <path id="Path_233" data-name="Path 233" d="M17.839,3.9c-.113-.106-.081-.3.144-.531a2.088,2.088,0,0,1,.789-.416,2.062,2.062,0,0,1-.365.745c-.229.236-.453.306-.568.2" transform="translate(4.143 0.688)" fill="#fff"/>
      <path id="Path_234" data-name="Path 234" d="M18.646,2.47c-.1-.092-.072-.266.122-.469a1.776,1.776,0,0,1,.691-.369,1.831,1.831,0,0,1-.316.655c-.2.208-.4.271-.5.182" transform="translate(4.333 0.38)" fill="#fff"/>
      <path id="Path_235" data-name="Path 235" d="M17.172,5.293c-.221.075-.46-.092-.6-.519a2.683,2.683,0,0,1,.028-1.255,2.738,2.738,0,0,1,.715.931c.144.438.074.766-.148.843" transform="translate(3.848 0.82)" fill="#fff"/>
      <path id="Path_236" data-name="Path 236" d="M17.886,3.206c-.17-.083-.211-.318-.046-.644a2.233,2.233,0,0,1,.742-.71,2.294,2.294,0,0,1-.123.953c-.169.333-.4.487-.573.4" transform="translate(4.134 0.431)" fill="#fff"/>
      <path id="Path_237" data-name="Path 237" d="M21.648,9.054c.255.176.721-.1,1-.607a3.151,3.151,0,0,0,.263-1.482,3.673,3.673,0,0,0-1.128.872c-.37.5-.422,1.021-.136,1.217" transform="translate(5.003 1.623)" fill="#fff"/>
      <path id="Path_238" data-name="Path 238" d="M23.2,8.512c.307.062.76-.354.887-.954A4.546,4.546,0,0,0,23.981,6,4.11,4.11,0,0,0,22.956,7.32c-.2.6-.063,1.113.24,1.192" transform="translate(5.328 1.399)" fill="#fff"/>
      <path id="Path_239" data-name="Path 239" d="M22.707,8.444a.191.191,0,0,0,.245.109.18.18,0,0,0,.116-.233.192.192,0,0,0-.245-.11.182.182,0,0,0-.116.234" transform="translate(5.29 1.911)" fill="#fff"/>
      <path id="Path_240" data-name="Path 240" d="M24.6,7.569c.3,0,.524-.275.524-.794a2.915,2.915,0,0,0-.535-1.37A3.087,3.087,0,0,0,24.079,6.7c0,.535.217.873.519.873" transform="translate(5.612 1.26)" fill="#fff"/>
      <path id="Path_241" data-name="Path 241" d="M23.988,7.887a.213.213,0,0,0,.29.026.191.191,0,0,0,.025-.279.215.215,0,0,0-.291-.023.188.188,0,0,0-.023.276" transform="translate(5.579 1.763)" fill="#fff"/>
      <path id="Path_242" data-name="Path 242" d="M25.068,7.007a.16.16,0,0,0,.213-.053.145.145,0,0,0-.06-.2.155.155,0,0,0-.21.052.145.145,0,0,0,.057.2" transform="translate(5.825 1.569)" fill="#fff"/>
      <path id="Path_243" data-name="Path 243" d="M25.684,5.6a.222.222,0,0,0,.263-.182.232.232,0,0,0-.2-.258.219.219,0,0,0-.263.181.232.232,0,0,0,.2.259" transform="translate(5.939 1.201)" fill="#fff"/>
      <path id="Path_244" data-name="Path 244" d="M25.35,4.48a.215.215,0,0,0,.182-.26.255.255,0,0,0-.279-.2.216.216,0,0,0-.182.263.255.255,0,0,0,.279.2" transform="translate(5.842 0.937)" fill="#fff"/>
      <path id="Path_245" data-name="Path 245" d="M24.531,8.033c.1.313.46.455,1,.28A3.166,3.166,0,0,0,26.779,7.3a3.369,3.369,0,0,0-1.514-.1c-.554.178-.832.513-.734.827" transform="translate(5.713 1.665)" fill="#fff"/>
      <path id="Path_246" data-name="Path 246" d="M23.272,8.571c-.036.291.237.543.8.6A3.438,3.438,0,0,0,25.622,8.8a3.524,3.524,0,0,0-1.343-.639c-.581-.059-.97.115-1.007.411" transform="translate(5.423 1.899)" fill="#fff"/>
      <path id="Path_247" data-name="Path 247" d="M22.118,8.828c-.112.234.044.52.5.728a3.022,3.022,0,0,0,1.4.128,3.1,3.1,0,0,0-.942-.914c-.466-.212-.842-.179-.954.058" transform="translate(5.147 2.011)" fill="#fff"/>
      <path id="Path_248" data-name="Path 248" d="M25.411,6.954c.192.192.53.139.893-.237a3.172,3.172,0,0,0,.61-1.338,3.208,3.208,0,0,0-1.227.613c-.376.386-.471.768-.276.962" transform="translate(5.899 1.253)" fill="#fff"/>
      <path id="Path_249" data-name="Path 249" d="M25.3,6.145c.2-.038.3-.293.2-.723a2.891,2.891,0,0,0-.621-1.056A2.833,2.833,0,0,0,24.791,5.5c.1.443.311.691.512.65" transform="translate(5.771 1.018)" fill="#fff"/>
      <path id="Path_250" data-name="Path 250" d="M25.495,4.115c.2-.007.342-.218.322-.6A2.359,2.359,0,0,0,25.4,2.5a2.416,2.416,0,0,0-.289.977c.02.4.179.645.383.636" transform="translate(5.852 0.583)" fill="#fff"/>
      <path id="Path_251" data-name="Path 251" d="M25.132,3.9c.115-.106.08-.3-.143-.531a2.09,2.09,0,0,0-.79-.416,2.051,2.051,0,0,0,.366.745c.228.236.454.306.567.2" transform="translate(5.64 0.688)" fill="#fff"/>
      <path id="Path_252" data-name="Path 252" d="M24.3,2.47c.1-.092.072-.266-.121-.469a1.794,1.794,0,0,0-.692-.369,1.831,1.831,0,0,0,.316.655c.2.208.395.271.5.182" transform="translate(5.475 0.38)" fill="#fff"/>
      <path id="Path_253" data-name="Path 253" d="M25.778,5.293c.221.075.46-.092.6-.519a2.683,2.683,0,0,0-.028-1.255,2.754,2.754,0,0,0-.715.931c-.144.438-.074.766.148.843" transform="translate(5.956 0.82)" fill="#fff"/>
      <path id="Path_254" data-name="Path 254" d="M25.058,3.206c.17-.083.211-.318.047-.644a2.244,2.244,0,0,0-.744-.71,2.307,2.307,0,0,0,.122.953c.17.333.4.487.575.4" transform="translate(5.676 0.431)" fill="#fff"/>
      <path id="Path_255" data-name="Path 255" d="M204.38,24.613l-2.067-.619c-1.406-.455-3.6-1.158-3.6-2.978,0-1.736,1.985-2.6,3.474-2.6a8.227,8.227,0,0,1,4.422,1.375l3.921-5.725a21.374,21.374,0,0,0-9.5-2.43c-6.243,0-10.75,4.134-10.75,10.46,0,6.037,3.349,7.36,8.434,8.808,1.737.5,4.921,1.281,4.921,3.555,0,2.192-2.026,3.143-3.929,3.143a10.331,10.331,0,0,1-6.318-2.5L189.3,41.071A19.2,19.2,0,0,0,200,44.46a13.677,13.677,0,0,0,8.848-2.936c2.481-2.109,3.224-5.292,3.224-8.394,0-5.043-3.349-7.236-7.691-8.518m49.032,7.4,3.349-9.924h.083l3.307,9.924Zm7.856-19.558h-8.848l-11.1,28.867L230.868,28.049l11.686-15.58h-9.72l-10.347,15.1V12.47h-8.13v31.16h8.13V28.5L233.41,43.629h7.019v0h8.6l2.15-5.416h11.164l2.026,5.416h8.641ZM178.58,31.519H178.5L163.652,12.457h-8.1V43.633h8.1V24.53h.083l14.845,19.1h8.1V12.457h-8.1ZM144.1,43.633h8.1V12.457h-8.1ZM131.317,12.457h-8.1V43.633h17.822V36.77h-9.717ZM103.784,36.812c-4.837,0-8.807-3.929-8.807-9.3,0-4.3,3.969-8.228,8.807-8.228s8.807,3.927,8.807,8.228c0,5.375-3.969,9.3-8.807,9.3m0-25.388c-8.973,0-17.242,6.615-17.242,16.043,0,10.088,7.236,17.2,17.242,17.2s17.242-7.112,17.242-17.2c0-9.428-8.27-16.043-17.242-16.043M70.808,26.433h-.785V18.66h.785c2.646,0,5.623.5,5.623,3.887s-2.977,3.887-5.623,3.887m14.058-4.382c0-6.657-4.672-9.593-10.833-9.593H61.917V43.633h8.1V31.643h.083l8.633,11.99h9.1l-9.8-12.776c4.424-.785,6.823-4.507,6.823-8.807M41.091,32.015l3.349-9.924h.083l3.307,9.924ZM40.1,12.457,29.029,41.237,18.648,28.049,30.335,12.47H20.613l-10.347,15.1V12.47H2.137v31.16h8.13V28.5L21.192,43.629h6.916v0h8.6l2.15-5.416H50.022l2.026,5.416h8.641L48.947,12.457Z" transform="translate(0.498 2.662)" fill="#fff"/>
      <path id="Path_256" data-name="Path 256" d="M162.619,48.938V40.925h-2.671V51.2h5.873V48.938Zm-10.338-1.567,1.1-3.27h.027l1.089,3.27Zm-.328-6.445L148,51.2h2.834l.709-1.784h3.678l.668,1.784h2.847l-3.869-10.274Zm-3.465,0H141.4v2.263h2.207V51.2h2.671V43.188h2.207ZM137.323,51.2h2.671V40.925h-2.671Zm-6.18-5.559h-.45V43.078h.45c1.035,0,1.921.014,1.921,1.308,0,1.254-.954,1.254-1.921,1.254m.967-4.715h-4.088V51.2h2.671V47.794h1.513c2.329,0,3.638-1.063,3.638-3.488,0-2.358-1.525-3.38-3.734-3.38m-19.653,8.026a2.945,2.945,0,0,1-2.9-3.065,2.909,2.909,0,0,1,5.805,0,2.945,2.945,0,0,1-2.9,3.065m0-8.366a5.482,5.482,0,1,0,5.682,5.287,5.486,5.486,0,0,0-5.682-5.287m-9.852,4.306H98.748V40.925h-2.67V51.2h2.67V46.99h3.857V51.2h2.671V40.925h-2.671ZM84.711,43.719,82.79,40.925h-3.2l3.788,5.342V51.2h2.671V46.267l3.788-5.342h-3.2ZM52.2,45.535h-.259v-2.56H52.2c.872,0,1.852.163,1.852,1.28s-.98,1.28-1.852,1.28m4.63-1.444c0-2.192-1.539-3.159-3.567-3.159h-3.99V51.2h2.668V47.251h.028L54.816,51.2h3l-3.227-4.207a2.76,2.76,0,0,0,2.247-2.9m67.19.82-.679-.2c-.462-.149-1.184-.381-1.184-.979,0-.572.652-.858,1.143-.858a2.712,2.712,0,0,1,1.455.453l1.29-1.883a7.019,7.019,0,0,0-3.126-.8,3.324,3.324,0,0,0-3.538,3.443c0,1.986,1.1,2.422,2.776,2.9.571.163,1.619.422,1.619,1.17,0,.721-.667,1.035-1.292,1.035a3.4,3.4,0,0,1-2.08-.824l-1.347,1.967a6.323,6.323,0,0,0,3.522,1.115,4.5,4.5,0,0,0,2.911-.965,3.486,3.486,0,0,0,1.062-2.762c0-1.66-1.1-2.381-2.531-2.8m-60.612,0-.681-.2c-.462-.149-1.184-.381-1.184-.979,0-.572.654-.858,1.143-.858a2.708,2.708,0,0,1,1.455.453l1.291-1.883a7.025,7.025,0,0,0-3.127-.8,3.325,3.325,0,0,0-3.538,3.443c0,1.986,1.1,2.422,2.776,2.9.571.163,1.619.422,1.619,1.17,0,.721-.666,1.035-1.292,1.035A3.4,3.4,0,0,1,59.8,48.36L58.45,50.326a6.319,6.319,0,0,0,3.52,1.115,4.5,4.5,0,0,0,2.913-.965,3.485,3.485,0,0,0,1.06-2.762c0-1.66-1.1-2.381-2.53-2.8m8.223-1.724h2.207V51.2h2.671V43.187h2.208V40.924H71.637ZM67.508,51.2h2.671V40.924H67.508Zm-26.044,0h5.846V48.938H44.135V47.166h3.012V44.9H44.135V43.187h3.175V40.924H41.465Zm-6.682-4.033L32.3,40.924H29.4L33.72,51.2h2.07l4.388-10.275h-2.9ZM25.467,51.2h2.671V40.924H25.467Zm-4.751-3.993h-.027L15.8,40.924H13.125V51.2H15.8V44.9h.027L20.716,51.2h2.671V40.924H20.716ZM8.433,46.335c0,1.335-.1,2.794-1.813,2.794S4.808,47.67,4.808,46.335V40.924H2.137V46.7a4.643,4.643,0,0,0,1.076,3.625A4.9,4.9,0,0,0,6.62,51.472a4.9,4.9,0,0,0,3.407-1.144A4.643,4.643,0,0,0,11.1,46.7V40.924H8.433Z" transform="translate(0.498 9.459)" fill="#fff"/>
    </g>
  </g>
</svg>
